# xmcd CD database file
#
# Track frame offsets:
#	150
#	13485
#	31898
#	48820
#	62243
#	74355
#	90635
#	106538
#	129878
#	144245
#	158053
#	177935
#	191335
#
# Disc length: 2768 seconds
#
# Revision: 0
# Processed by: cddbd v1.4PL0 Copyright (c) Steve Scherf et al.
# Submitted via: CDex 1.50beta9
#
DISCID=a10ace0d
DTITLE=Rev. Gary Davis - Masters of the Country Blues Guitar
DYEAR=1991
DGENRE=Blues
TTITLE0=Goin'To Sit Down On The Banks Of The River
TTITLE1=Great Change Since I've Been Born
TTITLE2=A Little More Faith
TTITLE3=Pure Religion
TTITLE4=Buck Rag
TTITLE5=I Am The Light Of This World
TTITLE6=You Better Mind
TTITLE7=Walkin' Dog Blues
TTITLE8=Let Us Get Together
TTITLE9=The Angel's Message To Me
TTITLE10=Make Believe Stunt
TTITLE11=Cocaine Blues
TTITLE12=God's Gonna Separate 
EXTD=YEAR: 1991
EXTT0=
EXTT1=
EXTT2=
EXTT3=
EXTT4=
EXTT5=
EXTT6=
EXTT7=
EXTT8=
EXTT9=
EXTT10=
EXTT11=
EXTT12=
PLAYORDER=
